<svg width="110" height="110" viewBox="0 0 110 110" fill="none" xmlns="http://www.w3.org/2000/svg">
<path d="M27.7185 25.6047C27.7185 22.1042 30.5563 19.2664 34.0569 19.2664H81.7537C85.2543 19.2664 88.0921 22.1042 88.0921 25.6048V90.2061C88.0921 93.7067 85.2543 96.5445 81.7537 96.5445H34.0569C30.5563 96.5445 27.7185 93.7067 27.7185 90.2061V25.6047Z" fill="black"/>
<path d="M23.4925 21.3787C23.4925 17.8781 26.3303 15.0403 29.8309 15.0403H77.5277C81.0283 15.0403 83.8661 17.8781 83.8661 21.3787V85.9801C83.8661 89.4807 81.0283 92.3185 77.5277 92.3185H29.8309C26.3303 92.3185 23.4925 89.4807 23.4925 85.9801V21.3787Z" fill="white"/>
<path fill-rule="evenodd" clip-rule="evenodd" d="M29.8309 13.4556H77.5277C81.9034 13.4556 85.4507 17.0028 85.4507 21.3786V85.98C85.4507 90.3557 81.9034 93.9029 77.5277 93.9029H29.8309C25.4551 93.9029 21.9079 90.3557 21.9079 85.9799V21.3786C21.9079 17.0028 25.4551 13.4556 29.8309 13.4556ZM29.8309 15.0402C26.3303 15.0402 23.4925 17.878 23.4925 21.3786V85.9799C23.4925 89.4806 26.3303 92.3183 29.8309 92.3183H77.5277C81.0283 92.3183 83.8661 89.4806 83.8661 85.98V21.3786C83.8661 17.878 81.0283 15.0402 77.5277 15.0402H29.8309Z" fill="black"/>
<path d="M30.8132 25.3047C30.8132 23.5544 32.2321 22.1355 33.9824 22.1355H74.2071C75.9574 22.1355 77.3763 23.5544 77.3763 25.3047V32.7308C77.3763 34.4811 75.9574 35.9 74.2071 35.9H33.9824C32.2321 35.9 30.8132 34.4811 30.8132 32.7308V25.3047Z" fill="black"/>
<path fill-rule="evenodd" clip-rule="evenodd" d="M33.605 41.4985H40.3974C42.1477 41.4985 43.5666 42.9174 43.5666 44.6677V46.0885C43.5666 47.8388 42.1477 49.2577 40.3974 49.2577H33.605C31.8547 49.2577 30.4358 47.8388 30.4358 46.0885V44.6677C30.4358 42.9174 31.8547 41.4985 33.605 41.4985ZM33.605 43.0831C32.7298 43.0831 32.0204 43.7926 32.0204 44.6677V46.0885C32.0204 46.9636 32.7298 47.6731 33.605 47.6731H40.3974C41.2726 47.6731 41.982 46.9636 41.982 46.0885V44.6677C41.982 43.7926 41.2726 43.0831 40.3974 43.0831H33.605Z" fill="black"/>
<path fill-rule="evenodd" clip-rule="evenodd" d="M33.605 52.667H40.3974C42.1477 52.667 43.5666 54.0859 43.5666 55.8362V57.2569C43.5666 59.0072 42.1477 60.4261 40.3974 60.4261H33.605C31.8547 60.4261 30.4358 59.0072 30.4358 57.2569V55.8362C30.4358 54.0859 31.8547 52.667 33.605 52.667ZM33.605 54.2516C32.7298 54.2516 32.0204 54.961 32.0204 55.8362V57.2569C32.0204 58.1321 32.7298 58.8415 33.605 58.8415H40.3974C41.2726 58.8415 41.982 58.1321 41.982 57.2569V55.8362C41.982 54.961 41.2726 54.2516 40.3974 54.2516H33.605Z" fill="black"/>
<path fill-rule="evenodd" clip-rule="evenodd" d="M33.605 64.4397H40.3974C42.1477 64.4397 43.5666 65.8586 43.5666 67.6089V69.0296C43.5666 70.7799 42.1477 72.1988 40.3974 72.1988H33.605C31.8547 72.1988 30.4358 70.7799 30.4358 69.0296V67.6089C30.4358 65.8586 31.8547 64.4397 33.605 64.4397ZM33.605 66.0243C32.7298 66.0243 32.0204 66.7337 32.0204 67.6089V69.0296C32.0204 69.9048 32.7298 70.6142 33.605 70.6142H40.3974C41.2726 70.6142 41.982 69.9048 41.982 69.0296V67.6089C41.982 66.7337 41.2726 66.0243 40.3974 66.0243H33.605Z" fill="black"/>
<path fill-rule="evenodd" clip-rule="evenodd" d="M33.605 76.2126H40.3974C42.1477 76.2126 43.5666 77.6315 43.5666 79.3818V80.8026C43.5666 82.5529 42.1477 83.9718 40.3974 83.9718H33.605C31.8547 83.9718 30.4358 82.5529 30.4358 80.8026V79.3818C30.4358 77.6315 31.8547 76.2126 33.605 76.2126ZM33.605 77.7972C32.7298 77.7972 32.0204 78.5067 32.0204 79.3818V80.8026C32.0204 81.6777 32.7298 82.3872 33.605 82.3872H40.3974C41.2726 82.3872 41.982 81.6777 41.982 80.8026V79.3818C41.982 78.5067 41.2726 77.7972 40.3974 77.7972H33.605Z" fill="black"/>
<path fill-rule="evenodd" clip-rule="evenodd" d="M51.1134 41.4985H57.9059C59.6562 41.4985 61.0751 42.9174 61.0751 44.6677V46.0885C61.0751 47.8388 59.6562 49.2577 57.9059 49.2577H51.1134C49.3631 49.2577 47.9442 47.8388 47.9442 46.0885V44.6677C47.9442 42.9174 49.3631 41.4985 51.1134 41.4985ZM51.1134 43.0831C50.2383 43.0831 49.5288 43.7926 49.5288 44.6677V46.0885C49.5288 46.9636 50.2383 47.6731 51.1134 47.6731H57.9059C58.781 47.6731 59.4905 46.9636 59.4905 46.0885V44.6677C59.4905 43.7926 58.781 43.0831 57.9059 43.0831H51.1134Z" fill="black"/>
<path fill-rule="evenodd" clip-rule="evenodd" d="M51.1134 52.667H57.9059C59.6562 52.667 61.0751 54.0859 61.0751 55.8362V57.2569C61.0751 59.0072 59.6562 60.4261 57.9059 60.4261H51.1134C49.3631 60.4261 47.9442 59.0072 47.9442 57.2569V55.8362C47.9442 54.0859 49.3631 52.667 51.1134 52.667ZM51.1134 54.2516C50.2383 54.2516 49.5288 54.961 49.5288 55.8362V57.2569C49.5288 58.1321 50.2383 58.8415 51.1134 58.8415H57.9059C58.781 58.8415 59.4905 58.1321 59.4905 57.2569V55.8362C59.4905 54.961 58.781 54.2516 57.9059 54.2516H51.1134Z" fill="black"/>
<path fill-rule="evenodd" clip-rule="evenodd" d="M51.1134 64.4397H57.9059C59.6562 64.4397 61.0751 65.8586 61.0751 67.6089V69.0296C61.0751 70.7799 59.6562 72.1988 57.9059 72.1988H51.1134C49.3631 72.1988 47.9442 70.7799 47.9442 69.0296V67.6089C47.9442 65.8586 49.3631 64.4397 51.1134 64.4397ZM51.1134 66.0243C50.2383 66.0243 49.5288 66.7337 49.5288 67.6089V69.0296C49.5288 69.9048 50.2383 70.6142 51.1134 70.6142H57.9059C58.781 70.6142 59.4905 69.9048 59.4905 69.0296V67.6089C59.4905 66.7337 58.781 66.0243 57.9059 66.0243H51.1134Z" fill="black"/>
<path fill-rule="evenodd" clip-rule="evenodd" d="M51.1134 76.2126H57.9059C59.6562 76.2126 61.0751 77.6315 61.0751 79.3818V80.8026C61.0751 82.5529 59.6562 83.9718 57.9059 83.9718H51.1134C49.3631 83.9718 47.9442 82.5529 47.9442 80.8026V79.3818C47.9442 77.6315 49.3631 76.2126 51.1134 76.2126ZM51.1134 77.7972C50.2383 77.7972 49.5288 78.5067 49.5288 79.3818V80.8026C49.5288 81.6777 50.2383 82.3872 51.1134 82.3872H57.9059C58.781 82.3872 59.4905 81.6777 59.4905 80.8026V79.3818C59.4905 78.5067 58.781 77.7972 57.9059 77.7972H51.1134Z" fill="black"/>
<path fill-rule="evenodd" clip-rule="evenodd" d="M68.1691 41.4985H74.9616C76.7119 41.4985 78.1308 42.9174 78.1308 44.6677V46.0885C78.1308 47.8388 76.7119 49.2577 74.9616 49.2577H68.1691C66.4188 49.2577 64.9999 47.8388 64.9999 46.0885V44.6677C64.9999 42.9174 66.4188 41.4985 68.1691 41.4985ZM68.1691 43.0831C67.294 43.0831 66.5845 43.7926 66.5845 44.6677V46.0885C66.5845 46.9636 67.294 47.6731 68.1691 47.6731H74.9616C75.8367 47.6731 76.5462 46.9636 76.5462 46.0885V44.6677C76.5462 43.7926 75.8367 43.0831 74.9616 43.0831H68.1691Z" fill="black"/>
<path fill-rule="evenodd" clip-rule="evenodd" d="M67.2629 52.667H74.0554C75.8057 52.667 77.2246 54.0859 77.2246 55.8362V80.8023C77.2246 82.5526 75.8057 83.9715 74.0554 83.9715H67.2629C65.5127 83.9715 64.0938 82.5526 64.0938 80.8023V55.8362C64.0938 54.0859 65.5126 52.667 67.2629 52.667ZM67.2629 54.2516C66.3878 54.2516 65.6783 54.961 65.6783 55.8362V80.8023C65.6783 81.6775 66.3878 82.3869 67.2629 82.3869H74.0554C74.9305 82.3869 75.64 81.6775 75.64 80.8023V55.8362C75.64 54.961 74.9305 54.2516 74.0554 54.2516H67.2629Z" fill="black"/>
<path fill-rule="evenodd" clip-rule="evenodd" d="M68.2067 66.6905C68.2067 66.2529 68.5614 65.8982 68.999 65.8982H72.3195C72.7571 65.8982 73.1118 66.2529 73.1118 66.6905C73.1118 67.1281 72.7571 67.4828 72.3195 67.4828H68.999C68.5614 67.4828 68.2067 67.1281 68.2067 66.6905Z" fill="black"/>
<path fill-rule="evenodd" clip-rule="evenodd" d="M68.2067 69.6339C68.2067 69.1963 68.5614 68.8416 68.999 68.8416H72.3195C72.7571 68.8416 73.1118 69.1963 73.1118 69.6339C73.1118 70.0714 72.7571 70.4262 72.3195 70.4262H68.999C68.5614 70.4262 68.2067 70.0714 68.2067 69.6339Z" fill="black"/>
<path fill-rule="evenodd" clip-rule="evenodd" d="M68.2067 26.8737C68.2067 25.6485 69.1999 24.6553 70.4251 24.6553H71.1198C72.345 24.6553 73.3382 25.6485 73.3382 26.8737V30.7757C73.3382 32.0009 72.345 32.9942 71.1198 32.9942H70.4251C69.1999 32.9942 68.2067 32.0009 68.2067 30.7757V26.8737ZM70.4251 26.2399C70.075 26.2399 69.7913 26.5237 69.7913 26.8737V30.7757C69.7913 31.1258 70.075 31.4096 70.4251 31.4096H71.1198C71.4698 31.4096 71.7536 31.1258 71.7536 30.7757V26.8737C71.7536 26.5237 71.4698 26.2399 71.1198 26.2399H70.4251Z" fill="white"/>
</svg>
