<svg width="100" height="100" viewBox="0 0 100 100" fill="none" xmlns="http://www.w3.org/2000/svg">
<path d="M45.3649 38.5288C50.724 38.5288 55.0684 42.8732 55.0684 48.2323V65.2059C55.0684 70.565 50.724 74.9093 45.3649 74.9093H34.9505L28.8396 82.4525C28.4163 82.9749 27.5715 82.6757 27.5715 82.0033V74.9093H27.5453C22.1862 74.9093 17.8418 70.565 17.8418 65.2059V48.2323C17.8418 42.8732 22.1862 38.5288 27.5453 38.5288H45.3649Z" fill="black"/>
<path d="M55.9955 22.1836C50.6364 22.1836 46.292 26.528 46.292 31.8871V58.1673C46.292 63.5264 50.6364 67.8708 55.9955 67.8708H68.6751L76.7513 77.8398C77.1745 78.3623 78.0194 78.063 78.0194 77.3906V67.8708H78.0454C83.4045 67.8708 87.7489 63.5264 87.7489 58.1673V31.8871C87.7489 26.528 83.4045 22.1836 78.0454 22.1836H55.9955Z" fill="black"/>
<path fill-rule="evenodd" clip-rule="evenodd" d="M40.9146 35.7422C46.4323 35.7422 50.9053 40.2152 50.9053 45.7329V62.132C50.9053 67.6497 46.4323 72.1227 40.9146 72.1227H30.7872L23.4081 81.2313V72.1194C18.0111 71.9808 13.6787 67.5624 13.6787 62.132V45.7329C13.6787 40.2152 18.1517 35.7422 23.6694 35.7422H40.9146Z" fill="white"/>
<path fill-rule="evenodd" clip-rule="evenodd" d="M30.7872 72.1227H40.9146C46.4323 72.1227 50.9053 67.6497 50.9053 62.132V45.7329C50.9053 40.2152 46.4323 35.7422 40.9146 35.7422H23.6694C18.1517 35.7422 13.6787 40.2152 13.6787 45.7329V62.132C13.6787 67.5624 18.0111 71.9808 23.4081 72.1194V81.2313L30.7872 72.1227ZM21.9808 73.4259C16.4753 72.6096 12.2514 67.8643 12.2514 62.132V45.7329C12.2514 39.4269 17.3634 34.3149 23.6694 34.3149H40.9146C47.2205 34.3149 52.3325 39.4269 52.3325 45.7329V62.132C52.3325 68.438 47.2205 73.55 40.9146 73.55H31.4678L24.5171 82.1297C24.1365 82.5995 23.5014 82.7785 22.9315 82.5766C22.3617 82.3748 21.9808 81.8358 21.9808 81.2313V73.4259Z" fill="black"/>
<path fill-rule="evenodd" clip-rule="evenodd" d="M14.4575 45.9973C14.4575 40.8737 18.611 36.7202 23.7346 36.7202H40.8492C45.9728 36.7202 50.1263 40.8737 50.1263 45.9973V61.9986C50.1263 67.1222 45.9728 71.2757 40.8492 71.2757H30.6243C30.2302 71.2757 29.9107 70.9562 29.9107 70.5621C29.9107 70.168 30.2302 69.8485 30.6243 69.8485H40.8492C45.1845 69.8485 48.699 66.334 48.699 61.9986V45.9973C48.699 41.6619 45.1845 38.1475 40.8492 38.1475H23.7346C19.3993 38.1475 15.8848 41.662 15.8848 45.9973V61.9987C15.8848 66.334 19.3993 69.8485 23.7346 69.8485H24.433C24.8271 69.8485 25.1466 70.168 25.1466 70.5621C25.1466 70.9562 24.8271 71.2757 24.433 71.2757H23.7346C18.611 71.2757 14.4575 67.1222 14.4575 61.9987V45.9973Z" fill="black"/>
<path fill-rule="evenodd" clip-rule="evenodd" d="M19.4434 51.0837C19.4434 50.4925 19.9226 50.0133 20.5138 50.0133H29.321C29.9122 50.0133 30.3915 50.4925 30.3915 51.0837C30.3915 51.6749 29.9122 52.1541 29.321 52.1541H20.5138C19.9226 52.1541 19.4434 51.6749 19.4434 51.0837Z" fill="black"/>
<path fill-rule="evenodd" clip-rule="evenodd" d="M19.4434 44.3151C19.4434 43.7239 19.9226 43.2446 20.5138 43.2446H41.2669C41.8581 43.2446 42.3374 43.7239 42.3374 44.3151C42.3374 44.9062 41.8581 45.3855 41.2669 45.3855H20.5138C19.9226 45.3855 19.4434 44.9062 19.4434 44.3151Z" fill="black"/>
<path fill-rule="evenodd" clip-rule="evenodd" d="M19.4434 57.4291C19.4434 56.8379 19.9226 56.3587 20.5138 56.3587H24.1778C24.769 56.3587 25.2483 56.8379 25.2483 57.4291C25.2483 58.0203 24.769 58.4995 24.1778 58.4995H20.5138C19.9226 58.4995 19.4434 58.0203 19.4434 57.4291Z" fill="black"/>
<path fill-rule="evenodd" clip-rule="evenodd" d="M50.7426 18.709C45.2249 18.709 40.752 23.182 40.752 28.6997V54.4055C40.752 59.9232 45.2249 64.3962 50.7426 64.3962H63.1354L72.4796 75.9305V64.3928C77.8765 64.2542 82.2088 59.8358 82.2088 54.4055V28.6997C82.2088 23.182 77.7359 18.709 72.2182 18.709H50.7426Z" fill="white"/>
<path fill-rule="evenodd" clip-rule="evenodd" d="M63.1354 64.3962H50.7426C45.2249 64.3962 40.7519 59.9232 40.7519 54.4055V28.6997C40.7519 23.182 45.2249 18.709 50.7426 18.709H72.2182C77.7359 18.709 82.2088 23.182 82.2088 28.6997V54.4055C82.2088 59.8358 77.8765 64.2542 72.4796 64.3928V75.9305L63.1354 64.3962ZM73.9069 65.6993C79.4124 64.883 83.6361 60.1377 83.6361 54.4055V28.6997C83.6361 22.3937 78.5241 17.2817 72.2182 17.2817H50.7426C44.4367 17.2817 39.3247 22.3937 39.3247 28.6997V54.4055C39.3247 60.7114 44.4367 65.8234 50.7426 65.8234H62.4548L71.3706 76.8289C71.7512 77.2987 72.3864 77.4777 72.9562 77.2758C73.526 77.074 73.9069 76.535 73.9069 75.9305V65.6993Z" fill="black"/>
<path fill-rule="evenodd" clip-rule="evenodd" d="M41.6528 29.1662C41.6528 24.0426 45.8063 19.8892 50.9299 19.8892H71.9259C77.0495 19.8892 81.2029 24.0426 81.2029 29.1662V53.7292C81.2029 58.8528 77.0494 63.0063 71.9259 63.0063H71.6742C71.2801 63.0063 70.9606 62.6868 70.9606 62.2927C70.9606 61.8986 71.2801 61.5791 71.6742 61.5791H71.9259C76.2612 61.5791 79.7757 58.0646 79.7757 53.7292V29.1662C79.7757 24.8309 76.2612 21.3164 71.9259 21.3164H50.9299C46.5946 21.3164 43.0801 24.8309 43.0801 29.1662V53.7292C43.0801 58.0646 46.5946 61.5791 50.9299 61.5791H63.712C64.1061 61.5791 64.4256 61.8986 64.4256 62.2927C64.4256 62.6868 64.1061 63.0063 63.712 63.0063H50.9299C45.8063 63.0063 41.6528 58.8528 41.6528 53.7292V29.1662Z" fill="black"/>
<path fill-rule="evenodd" clip-rule="evenodd" d="M48.2789 43.642C48.2789 42.8537 48.9179 42.2147 49.7062 42.2147H73.2642C74.0525 42.2147 74.6915 42.8537 74.6915 43.642C74.6915 44.4302 74.0525 45.0692 73.2642 45.0692H49.7062C48.9179 45.0692 48.2789 44.4302 48.2789 43.642Z" fill="black"/>
<path fill-rule="evenodd" clip-rule="evenodd" d="M48.2789 36.2257C48.2789 35.4375 48.9179 34.7985 49.7062 34.7985H73.2642C74.0525 34.7985 74.6915 35.4375 74.6915 36.2257C74.6915 37.014 74.0525 37.653 73.2642 37.653H49.7062C48.9179 37.653 48.2789 37.014 48.2789 36.2257Z" fill="black"/>
<path fill-rule="evenodd" clip-rule="evenodd" d="M48.2788 29.0903C48.2788 28.3021 48.9178 27.6631 49.7061 27.6631H73.2641C74.0523 27.6631 74.6913 28.3021 74.6913 29.0903C74.6913 29.8786 74.0523 30.5176 73.2641 30.5176H49.7061C48.9178 30.5176 48.2788 29.8786 48.2788 29.0903Z" fill="black"/>
<path fill-rule="evenodd" clip-rule="evenodd" d="M48.2789 50.5938C48.2789 49.8055 48.9179 49.1666 49.7062 49.1666H62.4948C63.2831 49.1666 63.9221 49.8055 63.9221 50.5938C63.9221 51.382 63.2831 52.021 62.4948 52.021H49.7062C48.9179 52.021 48.2789 51.382 48.2789 50.5938Z" fill="black"/>
</svg>
