<svg width="128" height="128" viewBox="0 0 128 128" fill="none" xmlns="http://www.w3.org/2000/svg">
<path d="M95.7866 64.7763C95.7866 82.3313 81.5554 96.5625 64.0004 96.5625C46.4454 96.5625 32.2142 82.3313 32.2142 64.7763C32.2142 47.2213 46.4454 32.9901 64.0004 32.9901C81.5554 32.9901 95.7866 47.2213 95.7866 64.7763Z" fill="white"/>
<path d="M64.0004 99.0625C82.9362 99.0625 98.2866 83.712 98.2866 64.7763C98.2866 45.8406 82.9362 30.4901 64.0004 30.4901C45.0647 30.4901 29.7142 45.8406 29.7142 64.7763C29.7142 83.712 45.0647 99.0625 64.0004 99.0625ZM95.2866 64.7763C95.2866 82.0552 81.2793 96.0625 64.0004 96.0625C46.7215 96.0625 32.7142 82.0552 32.7142 64.7763C32.7142 47.4974 46.7215 33.4901 64.0004 33.4901C81.2793 33.4901 95.2866 47.4974 95.2866 64.7763Z" fill="black" stroke="white"/>
<path fill-rule="evenodd" clip-rule="evenodd" d="M59.9996 94.5628C77.5546 94.5628 91.7857 80.3316 91.7857 62.7766C91.7857 51.1213 85.5126 40.9311 76.1585 35.3983C87.6809 40.1723 95.7862 51.5277 95.7862 64.7762C95.7862 82.3313 81.555 96.5624 64 96.5624C58.1003 96.5624 52.576 94.9551 47.8411 92.1545C51.5865 93.7063 55.693 94.5628 59.9996 94.5628Z" fill="black"/>
<path d="M26.5349 43.1758C29.7597 53.5968 36.4673 66.0329 45.8288 78.0986C55.1903 90.1643 65.57 99.7513 74.8629 105.464C79.5011 108.315 83.9863 110.275 88.0227 111.026C92.0553 111.777 95.9407 111.365 98.9426 109.036C101.944 106.707 103.309 103.046 103.583 98.9531C103.858 94.8566 103.075 90.0253 101.465 84.8241C98.2403 74.4032 91.5327 61.9671 82.1712 49.9014C72.8097 37.8357 62.43 28.2486 53.1371 22.5359C48.4989 19.6846 44.0137 17.7254 39.9773 16.9738C35.9447 16.2229 32.0593 16.6346 29.0574 18.9637C26.0555 21.2928 24.6914 24.9541 24.4168 29.0468C24.142 33.1433 24.9254 37.9747 26.5349 43.1758ZM48.199 76.2596C39.0002 64.4035 32.494 52.2846 29.4008 42.289C27.8537 37.2893 27.1686 32.8472 27.4101 29.2476C27.6516 25.6474 28.8133 22.9502 30.8964 21.3339C32.9796 19.7177 35.8808 19.2626 39.4281 19.9231C42.9748 20.5835 47.1074 22.3507 51.566 25.0916C60.4797 30.5712 70.6022 39.8843 79.801 51.7404C88.9998 63.5964 95.506 75.7153 98.5992 85.711C100.146 90.7107 100.831 95.1528 100.59 98.7523C100.348 102.353 99.1867 105.05 97.1036 106.666C95.0204 108.282 92.1192 108.737 88.5719 108.077C85.0252 107.416 80.8926 105.649 76.434 102.908C67.5203 97.4287 57.3978 88.1156 48.199 76.2596Z" fill="black" stroke="white"/>
<path d="M79.2554 82.5266C91.1128 72.7629 100.483 62.0211 105.998 52.4378C108.749 47.6579 110.638 42.9984 111.298 38.7779C111.957 34.5627 111.437 30.3625 108.776 27.1302C106.114 23.8979 102.092 22.5824 97.8283 22.4204C93.5596 22.2582 88.6243 23.2179 83.4055 25.0004C72.9421 28.574 60.602 35.7096 48.7446 45.4734C36.8872 55.2371 27.5165 65.9789 22.0017 75.5622C19.251 80.3421 17.3622 85.0016 16.7024 89.2221C16.0433 93.4373 16.5626 97.6375 19.2242 100.87C21.8858 104.102 25.9083 105.418 30.1717 105.58C34.4403 105.742 39.3757 104.782 44.5945 103C55.0579 99.426 67.398 92.2904 79.2554 82.5266ZM105.688 29.6728C107.364 31.7082 107.903 34.595 107.346 38.16C106.788 41.7244 105.142 45.9065 102.531 50.4427C97.3126 59.5116 88.297 69.8999 76.7127 79.4387C65.1285 88.9776 53.2034 95.8325 43.3016 99.2143C38.3489 100.906 33.9286 101.719 30.3235 101.582C26.7178 101.445 23.988 100.363 22.3121 98.3272C20.6361 96.2918 20.097 93.405 20.6544 89.84C21.2116 86.2756 22.8582 82.0935 25.4686 77.5573C30.6874 68.4884 39.703 58.1001 51.2872 48.5613C62.8715 39.0224 74.7966 32.1675 84.6983 28.7857C89.651 27.0941 94.0714 26.2806 97.6764 26.4175C101.282 26.5545 104.012 27.6375 105.688 29.6728Z" fill="black" stroke="white"/>
<path d="M111.101 42.9933C111.101 44.8256 109.615 46.311 107.783 46.311C105.951 46.311 104.465 44.8256 104.465 42.9933C104.465 41.1609 105.951 39.6755 107.783 39.6755C109.615 39.6755 111.101 41.1609 111.101 42.9933Z" fill="black" stroke="white"/>
<path d="M55.0698 46.8109C55.0698 48.6432 53.5844 50.1286 51.7521 50.1286C49.9197 50.1286 48.4343 48.6432 48.4343 46.8109C48.4343 44.9786 49.9197 43.4932 51.7521 43.4932C53.5844 43.4932 55.0698 44.9786 55.0698 46.8109Z" fill="black" stroke="white"/>
<path d="M54.4523 97.2837C54.4523 100.263 52.0368 102.679 49.0572 102.679C46.0776 102.679 43.6622 100.263 43.6622 97.2837C43.6622 94.3041 46.0776 91.8887 49.0572 91.8887C52.0368 91.8887 54.4523 94.3041 54.4523 97.2837Z" fill="black" stroke="white"/>
</svg>
