<svg width="73" height="73" viewBox="0 0 73 73" fill="none" xmlns="http://www.w3.org/2000/svg">
<circle cx="36.5" cy="36.5" r="36.5" fill="#F19035"/>
<path d="M48.244 47.16V52H25.54V48.172L37.772 36.556C39.1507 35.236 40.0747 34.092 40.544 33.124C41.0427 32.1267 41.292 31.144 41.292 30.176C41.292 28.7387 40.808 27.6387 39.84 26.876C38.872 26.1133 37.4493 25.732 35.572 25.732C32.4333 25.732 30.028 26.8027 28.356 28.944L24.352 25.864C25.5547 24.2507 27.168 23.004 29.192 22.124C31.2453 21.2147 33.5333 20.76 36.056 20.76C39.4 20.76 42.0693 21.552 44.064 23.136C46.0587 24.72 47.056 26.876 47.056 29.604C47.056 31.276 46.704 32.8453 46 34.312C45.296 35.7787 43.9467 37.4507 41.952 39.328L33.724 47.16H48.244Z" fill="white"/>
</svg>
