<svg width="124" height="863" viewBox="0 0 124 863" fill="none" xmlns="http://www.w3.org/2000/svg">
<g clip-path="url(#clip0_1:426)">
<path d="M108.832 217.014C108.832 217.014 60.5196 217.014 0.923218 217.014C0.923218 157.487 0.923218 109.23 0.923218 109.23C60.5196 109.23 108.832 157.487 108.832 217.014Z" fill="#F19035"/>
<path d="M216.106 540.301C216.106 540.301 167.794 540.301 108.197 540.301C108.197 480.774 108.197 432.517 108.197 432.517C167.794 432.517 216.106 480.774 216.106 540.301Z" fill="#F19035"/>
<path d="M108.833 217.014C108.833 217.014 157.146 217.014 216.742 217.014C216.742 157.487 216.742 109.23 216.742 109.23C157.146 109.23 108.833 157.487 108.833 217.014Z" fill="#F19035"/>
<path d="M108.521 432.192C108.521 432.192 60.2086 432.192 0.612244 432.192C0.612244 372.665 0.612244 324.408 0.612244 324.408C60.2086 324.408 108.521 372.665 108.521 432.192Z" fill="#54AD5E"/>
<path d="M216.726 755.778C216.726 755.778 168.413 755.778 108.817 755.778C108.817 696.251 108.817 647.992 108.817 647.992C168.413 647.992 216.726 696.251 216.726 755.778Z" fill="#F2BC41"/>
<path d="M0.907471 755.778C0.907471 755.778 49.22 755.778 108.816 755.778C108.816 696.251 108.816 647.992 108.816 647.992C49.22 647.992 0.907471 696.251 0.907471 755.778Z" fill="#F2BC41"/>
<path d="M1.59749 755.176C1.59749 755.176 49.9099 755.202 109.507 755.233C109.475 814.761 109.45 863.019 109.45 863.019C49.8538 862.988 1.56649 814.704 1.59749 755.176Z" fill="#F2BC41"/>
<path d="M108.522 432.192C108.522 432.192 156.835 432.192 216.431 432.192C216.431 372.665 216.431 324.408 216.431 324.408C156.835 324.408 108.522 372.665 108.522 432.192Z" fill="#54AD5E"/>
<path d="M108.604 216.462C108.604 216.462 156.916 216.534 216.512 216.623C216.422 276.151 216.35 324.407 216.35 324.407C156.754 324.317 108.514 275.989 108.604 216.462Z" fill="#54AD5E"/>
<path d="M108.602 216.462C108.602 216.462 60.2897 216.389 0.693446 216.3C0.603902 275.827 0.531311 324.084 0.531311 324.084C60.1276 324.173 108.512 275.989 108.602 216.462Z" fill="#54AD5E"/>
<path d="M108.196 540.139C108.196 540.139 156.509 540.067 216.106 539.977C216.195 599.504 216.268 647.758 216.268 647.758C156.671 647.853 108.286 599.666 108.196 540.139Z" fill="#F19035"/>
<path d="M108.44 540.301C108.44 540.301 60.1276 540.301 0.531311 540.301C0.531311 480.774 0.531311 432.517 0.531311 432.517C60.1276 432.517 108.44 480.774 108.44 540.301Z" fill="#F19035"/>
<path d="M0.532166 540.301C0.532166 540.301 48.8445 540.228 108.441 540.138C108.53 599.666 108.603 647.922 108.603 647.922C49.0067 648.011 0.621711 599.828 0.532166 540.301Z" fill="#F19035"/>
<path d="M216.799 863.02L108.891 863.039L108.872 755.253L216.781 755.234L216.799 863.02Z" fill="#F2BC41"/>
<path d="M216.106 0.17791C216.106 0.17791 167.793 0.158862 108.196 0.135365C108.173 59.6627 108.154 107.919 108.154 107.919C167.75 107.942 216.082 59.7052 216.106 0.17791Z" fill="#F19035"/>
<path d="M0.287789 0.0930443C0.287789 0.0930443 48.6002 0.112092 108.196 0.13559C108.173 59.663 108.154 107.919 108.154 107.919C48.5577 107.896 0.264265 59.6204 0.287789 0.0930443Z" fill="#F19035"/>
</g>
<defs>
<clipPath id="clip0_1:426">
<rect width="432" height="863" fill="white"/>
</clipPath>
</defs>
</svg>
