<svg width="217" height="67" viewBox="0 0 217 67" fill="none" xmlns="http://www.w3.org/2000/svg">
<path d="M55.1264 31.1133C55.1264 46.28 42.7859 58.575 27.5632 58.575C12.3405 58.575 0 46.28 0 31.1133C0 31.1133 12.3405 31.1133 27.5632 31.1133C42.7859 31.1133 55.1264 31.1133 55.1264 31.1133Z" fill="#F2BC41"/>
<path d="M55.1264 3.65186C55.1264 18.8186 42.7859 31.1136 27.5632 31.1136C12.3405 31.1136 0 18.8186 0 3.65186C0 3.65186 12.3405 3.65192 27.5632 3.65192C42.7859 3.65192 55.1264 3.65186 55.1264 3.65186Z" fill="#F2BC41"/>
<path d="M80.8091 29.7903C76.9398 29.7903 73.6831 28.8754 71.0385 27.0456V21.5561C72.1161 22.4832 73.5362 23.2883 75.2993 23.9714C77.0868 24.6302 78.8499 24.9595 80.5887 24.9595C82.0337 24.9595 83.221 24.7034 84.1517 24.191C85.0824 23.6543 85.5475 22.9224 85.5475 21.9952C85.5475 20.9949 85.1067 20.2874 84.2252 19.8726C83.8578 19.653 83.3679 19.4335 82.7559 19.2139L81.8743 18.9211L79.8173 18.299L77.9073 17.6768C77.6377 17.6036 77.0625 17.3963 76.1809 17.0547C75.422 16.7619 74.871 16.5057 74.528 16.2861C73.2548 15.4078 72.4467 14.6637 72.1037 14.0537C71.516 12.8827 71.2221 11.6872 71.2221 10.4673C71.2221 8.19829 72.0912 6.41727 73.8301 5.12417C75.5689 3.80669 77.9316 3.14795 80.9193 3.14795C83.9313 3.14795 86.7354 3.85548 89.3309 5.27055V10.3941C86.7105 8.78383 83.9313 7.97871 80.9928 7.97871C78.0785 7.97871 76.6217 8.82043 76.6217 10.5039C76.6217 11.2358 77.0749 11.8214 77.9808 12.2605C78.5193 12.5533 79.2172 12.8095 80.0745 13.029C81.2256 13.3462 82.1558 13.6146 82.8661 13.8342C84.9965 14.4929 86.8574 15.3834 88.4493 16.5057C90.1633 17.7012 91.0205 19.4823 91.0205 21.8488C91.0205 24.313 90.0531 26.2526 88.1187 27.6677C86.1844 29.0827 83.7476 29.7903 80.8091 29.7903ZM101.78 29.278H96.4902V3.6603H107.73C110.497 3.6603 112.676 4.38003 114.268 5.8195C115.885 7.23456 116.693 9.08882 116.693 11.3822C116.693 13.7 115.885 15.5664 114.268 16.9815C112.676 18.421 110.497 19.1407 107.73 19.1407H101.78V29.278ZM101.78 8.27148V14.6393H107.363C108.636 14.6393 109.628 14.3709 110.338 13.8342C111.048 13.273 111.403 12.4801 111.403 11.4554C111.403 10.4307 111.048 9.64993 110.338 9.1132C109.628 8.55203 108.636 8.27148 107.363 8.27148H101.78ZM127.095 29.278H121.805V3.6603H133.706C136.449 3.6603 138.603 4.36783 140.171 5.78291C141.762 7.17358 142.559 8.99119 142.559 11.2358C142.559 12.9436 142.081 14.4319 141.126 15.7006C140.195 16.9449 138.897 17.8232 137.233 18.3356L145.167 29.278H139.032L131.539 18.9211H127.095V29.278ZM127.095 8.27148V14.4929H133.412C134.612 14.4929 135.543 14.2245 136.204 13.6878C136.889 13.151 137.233 12.3825 137.233 11.3822C137.233 10.4063 136.889 9.64993 136.204 9.1132C135.543 8.55203 134.612 8.27148 133.412 8.27148H127.095ZM155.175 29.278H149.922V3.6603H155.175V29.278ZM167.283 29.278H162.104V3.6603H166.622L179.588 20.0556V3.6603H184.731V29.278H180.36L167.283 12.8095V29.278ZM204.363 29.7903C200.445 29.7903 197.188 28.546 194.592 26.0574C191.972 23.5201 190.662 20.324 190.662 16.4691C190.662 12.5655 191.972 9.36938 194.592 6.88081C197.188 4.39224 200.506 3.14795 204.547 3.14795C207.51 3.14795 210.081 3.79449 212.26 5.08757V10.2843C209.885 8.82043 207.437 8.0885 204.914 8.0885C202.294 8.0885 200.164 8.86924 198.523 10.4307C196.882 11.9677 196.062 14.0172 196.062 16.5789C196.062 19.1163 196.858 21.1413 198.449 22.654C200.041 24.1666 202.012 24.9229 204.363 24.9229C206.616 24.9229 208.342 24.3618 209.542 23.2395V14.4197H214.832V25.7281C213.73 26.8992 212.26 27.8629 210.424 28.6192C208.514 29.4 206.493 29.7903 204.363 29.7903Z" fill="white"/>
<path d="M77.2413 54.9169C75.3764 54.9169 73.8506 54.3004 72.6639 53.0673C71.4602 51.8174 70.8584 50.3141 70.8584 48.5575C70.8584 46.8178 71.4602 45.3229 72.6639 44.073C73.8506 42.84 75.3849 42.2235 77.2667 42.2235C78.6229 42.2235 79.8436 42.536 80.9286 43.1609V44.2757C79.7927 43.617 78.6145 43.2876 77.3938 43.2876C75.868 43.2876 74.5881 43.7943 73.5539 44.8078C72.5368 45.8212 72.0282 47.0796 72.0282 48.5828C72.0282 50.0861 72.5368 51.3445 73.5539 52.3579C74.605 53.3545 75.885 53.8528 77.3938 53.8528C78.8179 53.8528 80.0724 53.4727 81.1574 52.7126V53.8528C80.0894 54.5622 78.784 54.9169 77.2413 54.9169ZM87.3787 52.3579C88.4128 53.3545 89.6673 53.8528 91.1423 53.8528C92.6341 53.8528 93.8802 53.3545 94.8804 52.3579C95.8976 51.3445 96.4062 50.0861 96.4062 48.5828C96.4062 47.0796 95.8976 45.8212 94.8804 44.8078C93.8802 43.7943 92.6341 43.2876 91.1423 43.2876C89.6504 43.2876 88.3958 43.7943 87.3787 44.8078C86.3784 45.8381 85.8783 47.0965 85.8783 48.5828C85.8783 50.0692 86.3784 51.3276 87.3787 52.3579ZM95.7705 53.0673C94.5837 54.3004 93.041 54.9169 91.1423 54.9169C89.2266 54.9169 87.6753 54.3004 86.4886 53.0673C85.3019 51.8343 84.7085 50.3395 84.7085 48.5828C84.7085 46.8262 85.3019 45.3314 86.4886 44.0983C87.6923 42.8484 89.2435 42.2235 91.1423 42.2235C93.0241 42.2235 94.5668 42.8484 95.7705 44.0983C96.9741 45.3483 97.576 46.8431 97.576 48.5828C97.576 50.3226 96.9741 51.8174 95.7705 53.0673ZM111.466 43.5663V54.6128H110.322V43.5663H104.117V54.6128H102.973V43.5663H100.455V42.5275H102.973V40.1206C102.973 39.0396 103.252 38.2035 103.812 37.6123C104.371 37.0042 105.16 36.7002 106.177 36.7002C107.041 36.7002 107.83 36.8691 108.542 37.2069V38.2964C107.796 37.9417 107.084 37.7643 106.406 37.7643C105.677 37.7643 105.109 37.9923 104.702 38.4484C104.312 38.9044 104.117 39.5463 104.117 40.3739V42.5275H110.322V40.1206C110.322 39.0396 110.602 38.2035 111.161 37.6123C111.721 37.0042 112.509 36.7002 113.526 36.7002C114.391 36.7002 115.179 36.8691 115.891 37.2069V38.2964C115.162 37.9417 114.45 37.7643 113.755 37.7643C113.026 37.7643 112.458 37.9923 112.051 38.4484C111.661 38.9044 111.466 39.5463 111.466 40.3739V42.5275H115.891V43.5663H111.466ZM124.932 54.9169C123.016 54.9169 121.439 54.3257 120.202 53.1433C118.947 51.9441 118.32 50.4239 118.32 48.5828C118.32 46.7586 118.879 45.2469 119.998 44.0477C121.117 42.8315 122.567 42.2235 124.347 42.2235C125.347 42.2235 126.228 42.4262 126.991 42.8315C127.754 43.22 128.339 43.7521 128.746 44.4277C129.543 45.6945 129.941 47.0036 129.941 48.3548V48.7349H119.464C119.498 50.2719 120.032 51.5049 121.066 52.4339C122.117 53.3798 123.457 53.8528 125.084 53.8528C126.542 53.8528 127.847 53.4727 129 52.7126V53.8274C128.051 54.5537 126.695 54.9169 124.932 54.9169ZM119.49 47.7467H128.797C128.797 47.2738 128.712 46.7924 128.543 46.3026C128.373 45.8128 128.119 45.3398 127.78 44.8838C127.458 44.4108 126.991 44.0308 126.381 43.7436C125.771 43.4396 125.084 43.2876 124.321 43.2876C122.897 43.2876 121.753 43.7436 120.888 44.6557C120.024 45.5678 119.557 46.5982 119.49 47.7467ZM140.123 54.9169C138.207 54.9169 136.63 54.3257 135.393 53.1433C134.138 51.9441 133.511 50.4239 133.511 48.5828C133.511 46.7586 134.07 45.2469 135.189 44.0477C136.308 42.8315 137.758 42.2235 139.538 42.2235C140.538 42.2235 141.42 42.4262 142.182 42.8315C142.945 43.22 143.53 43.7521 143.937 44.4277C144.734 45.6945 145.132 47.0036 145.132 48.3548V48.7349H134.655C134.689 50.2719 135.223 51.5049 136.257 52.4339C137.308 53.3798 138.648 53.8528 140.275 53.8528C141.733 53.8528 143.039 53.4727 144.191 52.7126V53.8274C143.242 54.5537 141.886 54.9169 140.123 54.9169ZM134.681 47.7467H143.988C143.988 47.2738 143.903 46.7924 143.734 46.3026C143.564 45.8128 143.31 45.3398 142.971 44.8838C142.649 44.4108 142.182 44.0308 141.572 43.7436C140.962 43.4396 140.275 43.2876 139.512 43.2876C138.088 43.2876 136.944 43.7436 136.079 44.6557C135.215 45.5678 134.749 46.5982 134.681 47.7467Z" fill="white"/>
</svg>
